# xmcd
#
# Track frame offsets: 
#        150
#        12934
#        35019
#        51328
#        64948
#        94065
#        129095
#        146349
#        173140
#        196780
#        210296
#
# Disc length: 3156 seconds
#
# Revision: 6
# Processed by: cddbd v1.5.2PL0 Copyright (c) Steve Scherf et al.
# Submitted via: ExactAudioCopy v1.0b3
#
DISCID=8f0c520b
DTITLE=Muddy Waters - Floyd's Guitar Blues
DYEAR=2005
DGENRE=Blues
TTITLE0=Baby Please Don't Go
TTITLE1=Soon Forgotten
TTITLE2=Corrina, Corrina
TTITLE3=Hoochie Coochie Man
TTITLE4=Howlin' Wolf
TTITLE5=Floyd's Guitar Blues
TTITLE6=Blow Wind Blow
TTITLE7=Caldonia
TTITLE8=Screamin' And Cryin'
TTITLE9=I Got My Mojo Working
TTITLE10=Garbage Man
EXTD=Part of the "Revue" collection\nREV424
EXTT0=
EXTT1=
EXTT2=
EXTT3=
EXTT4=
EXTT5=
EXTT6=
EXTT7=
EXTT8=
EXTT9=
EXTT10=
PLAYORDER=
